<svg width="313" height="114" viewBox="0 0 313 114" fill="none" xmlns="http://www.w3.org/2000/svg">
<path d="M95.9664 26.3337C97.2132 26.3337 98.2819 27.4915 98.1038 28.8273C98.0147 29.3617 97.6585 29.896 97.1241 30.2522C93.829 32.6568 92.8494 34.527 92.8494 38.3564V56.5242C92.8494 69.7937 84.2108 78.2541 69.6945 78.2541C55.1781 78.2541 46.6286 69.7937 46.6286 56.5242V38.3564C46.6286 34.527 45.649 32.6568 42.2648 30.2522C41.5524 29.7179 41.1961 28.9164 41.3742 28.0258C41.5524 27.0462 42.532 26.3337 43.5116 26.3337H59.4529C60.7888 26.3337 61.7684 27.4915 61.5903 28.8273C61.5012 29.3617 61.145 29.896 60.6997 30.2522C57.3155 32.6568 56.3359 34.527 56.3359 38.3564V56.5242C56.3359 70.7733 59.8091 76.473 69.6945 76.473C79.6689 76.473 83.1421 70.7733 83.1421 56.5242V38.3564C83.1421 34.527 82.0735 32.6568 78.6893 30.2522C78.0659 29.7179 77.7096 28.9164 77.8878 28.0258C78.0659 27.0462 78.9565 26.3337 80.0251 26.3337H95.9664ZM93.1166 82.9742C93.4728 82.9742 93.74 83.2414 93.74 83.5976C93.3837 88.0505 91.2464 91.8799 88.9309 94.1064C86.3482 96.7781 82.3406 98.4702 77.2644 98.4702C59.9872 98.4702 49.6566 81.7274 30.5093 88.3176H17.685C16.3491 88.3176 15.3695 87.2489 15.5476 85.9131C15.6367 85.2897 15.9929 84.7553 16.4382 84.3991C19.8224 81.9946 20.802 80.2134 20.802 76.2949V38.3564C20.802 34.527 19.8224 32.6568 16.4382 30.2522C15.7257 29.7179 15.3695 28.9164 15.5476 28.0258C15.7257 27.0462 16.7054 26.3337 17.685 26.3337H33.6263C34.9621 26.3337 35.9417 27.4915 35.7636 28.8273C35.6746 29.3617 35.3183 29.896 34.8731 30.2522C31.4889 32.6568 30.5093 34.527 30.5093 38.3564V86.5365C46.0943 80.7478 67.6462 90.3659 80.9157 90.3659C85.7248 90.3659 88.4856 89.5644 90.3558 87.6942C91.6026 86.4474 92.3151 84.3991 92.4932 83.4195C92.5822 83.1523 92.8494 82.9742 93.1166 82.9742ZM103.145 84.4882C106.529 82.0836 107.509 80.2134 107.509 76.2949V38.3564C107.509 34.527 106.529 32.6568 103.145 30.2522C102.433 29.7179 102.077 28.9164 102.255 28.0258C102.433 27.0462 103.412 26.3337 104.392 26.3337H116.504C116.949 26.3337 117.305 26.6009 117.394 26.9571L132.89 73.2669L148.297 26.9571C148.386 26.6009 148.743 26.3337 149.188 26.3337H161.389C162.636 26.3337 163.704 27.4915 163.526 28.8273C163.437 29.3617 163.081 29.896 162.547 30.2522C159.251 32.6568 158.183 34.527 158.183 38.3564V76.2949C158.183 80.2134 159.251 82.0836 162.636 84.4882C163.259 84.9334 163.615 85.824 163.437 86.6255C163.259 87.6942 162.368 88.3176 161.3 88.3176H145.358C144.112 88.3176 143.043 87.2489 143.221 85.9131C143.31 85.2897 143.666 84.7553 144.112 84.3991C147.496 81.9946 148.475 80.2134 148.475 76.2949V31.8553L129.952 87.5161C129.773 88.0505 129.328 88.3176 128.794 88.3176C128.17 88.3176 127.725 88.0505 127.547 87.5161L109.29 31.9443V76.2949C109.29 80.2134 113.031 82.0836 116.415 84.4882C117.127 84.9334 117.483 85.824 117.305 86.6255C117.127 87.6942 116.148 88.3176 115.168 88.3176H104.392C103.412 88.3176 102.433 87.6942 102.255 86.6255C102.077 85.824 102.433 84.9334 103.145 84.4882ZM188.214 84.4882C188.926 84.9334 189.283 85.824 189.104 86.6255C188.926 87.6942 187.947 88.4067 186.967 88.4067H171.026C170.046 88.4067 169.066 87.6942 168.888 86.6255C168.71 85.824 169.066 84.9334 169.779 84.4882C173.163 82.0836 174.143 80.2134 174.143 76.2949V63.8269C174.143 59.9083 173.163 58.0381 169.779 55.6336C169.066 55.1883 168.71 54.2977 168.888 53.4962C169.066 52.4275 170.046 51.7151 171.026 51.7151H186.967C188.303 51.7151 189.283 52.8728 189.104 54.2087C189.015 54.8321 188.659 55.3664 188.214 55.7226C184.83 58.0381 183.85 59.9083 183.85 63.8269V76.2949C183.85 80.2134 184.83 82.0836 188.214 84.4882ZM292.589 71.4858C297.932 87.6052 279.052 98.4702 261.864 98.4702C248.684 98.4702 238.62 94.6407 230.16 81.0149L201.751 36.2191V76.2949C201.751 80.2134 205.491 82.0836 208.875 84.4882C209.499 84.9334 209.855 85.824 209.677 86.6255C209.499 87.6942 208.608 88.4067 207.539 88.4067H196.763C195.784 88.4067 194.893 87.6942 194.626 86.6255C194.448 85.824 194.804 84.9334 195.517 84.4882C198.901 82.0836 199.88 80.2134 199.88 76.2949V33.7255C195.784 28.2039 187.234 17.517 180.288 17.517C177.26 17.517 174.588 19.6544 174.588 22.3261C174.588 29.3617 187.679 29.8069 187.679 39.158C187.679 42.8984 184.562 45.5701 180.911 45.5701C174.499 45.5701 170.402 36.8425 170.402 30.4303C170.402 18.1404 180.288 13.8657 186.433 13.8657C193.557 13.8657 200.771 19.031 209.231 32.6568L237.641 77.5417V38.3564C237.641 34.527 233.989 32.6568 230.605 30.2522C229.893 29.7179 229.536 28.9164 229.804 28.0258C229.982 27.0462 230.872 26.3337 231.941 26.3337H242.628C243.964 26.3337 244.943 27.4915 244.765 28.8273C244.676 29.3617 244.32 29.896 243.875 30.2522C240.49 32.6568 239.511 34.527 239.511 38.3564V80.1244C246.279 89.2082 254.205 96.1547 265.783 96.1547C281.368 96.1547 287.78 86.0912 283.06 72.0201L277.806 56.4351H263.467L262.042 60.888C259.994 66.9439 260.172 69.0812 263.734 73.0888C264.18 73.6232 264.447 74.3356 264.447 75.0481C264.447 76.2949 263.467 77.1855 262.31 77.1855H251.534C250.287 77.1855 249.307 76.2058 249.396 74.87C249.485 74.2466 249.842 73.6232 250.376 73.2669C253.76 70.8624 257.411 69.1703 258.747 65.1627L268.9 34.9723C269.434 33.1021 269.345 31.6771 267.386 30.2522C266.762 29.7179 266.406 28.9164 266.495 28.1149C266.762 27.0462 267.653 26.3337 268.722 26.3337H275.935C276.826 26.3337 277.538 26.8681 277.806 27.6696L292.589 71.4858ZM264.091 54.6539H277.182L270.592 35.1504L264.091 54.6539Z" fill="white"/>
</svg>
