<svg width="162" height="162" viewBox="0 0 162 162" fill="none" xmlns="http://www.w3.org/2000/svg">
<rect width="162" height="162" fill="black"/>
<path d="M125.865 44.2558C127.285 44.2558 128.503 45.5748 128.3 47.0968C128.199 47.7057 127.793 48.3145 127.184 48.7203C123.43 51.46 122.313 53.5908 122.313 57.9539V78.6533C122.313 93.7719 112.471 103.411 95.9319 103.411C79.3927 103.411 69.6518 93.7719 69.6518 78.6533V57.9539C69.6518 53.5908 68.5357 51.46 64.6799 48.7203C63.8682 48.1115 63.4623 47.1983 63.6652 46.1836C63.8682 45.0675 64.9843 44.2558 66.1004 44.2558H84.2631C85.7852 44.2558 86.9013 45.5748 86.6984 47.0968C86.5969 47.7057 86.191 48.3145 85.6837 48.7203C81.8279 51.46 80.7118 53.5908 80.7118 57.9539V78.6533C80.7118 94.8881 84.669 101.382 95.9319 101.382C107.296 101.382 111.254 94.8881 111.254 78.6533V57.9539C111.254 53.5908 110.036 51.46 106.18 48.7203C105.47 48.1115 105.064 47.1983 105.267 46.1836C105.47 45.0675 106.485 44.2558 107.702 44.2558H125.865ZM122.618 108.789C123.024 108.789 123.328 109.094 123.328 109.499C122.922 114.573 120.487 118.936 117.849 121.473C114.906 124.517 110.34 126.445 104.557 126.445C84.872 126.445 73.1017 107.369 51.2862 114.877H36.6748C35.1528 114.877 34.0367 113.66 34.2396 112.138C34.3411 111.427 34.747 110.818 35.2543 110.413C39.1101 107.673 40.2262 105.644 40.2262 101.179V57.9539C40.2262 53.5908 39.1101 51.46 35.2543 48.7203C34.4426 48.1115 34.0367 47.1983 34.2396 46.1836C34.4426 45.0675 35.5587 44.2558 36.6748 44.2558H54.8375C56.3596 44.2558 57.4757 45.5748 57.2728 47.0968C57.1713 47.7057 56.7654 48.3145 56.2581 48.7203C52.4023 51.46 51.2862 53.5908 51.2862 57.9539V112.848C69.043 106.252 93.5982 117.211 108.717 117.211C114.196 117.211 117.342 116.298 119.472 114.167C120.893 112.746 121.705 110.413 121.908 109.296C122.009 108.992 122.313 108.789 122.618 108.789Z" fill="white"/>
</svg>
